<svg class="svg-icon" style="width: current;height: current;vertical-align: middle;fill: currentColor;overflow: hidden;" viewBox="0 0 1806 1024" version="1.1" xmlns="http://www.w3.org/2000/svg"><path d="M452.550498 11.13634h99.412202v223.813262h-99.412202zM1254.366944 11.13634h99.412201v223.813262h-99.412201zM1282.886838 947.403714h-54.323608v-55.953316a324.311936 324.311936 0 1 0-648.352254 0v55.953316h-54.323608v-55.953316a378.635544 378.635544 0 1 1 756.99947 0zM232.811506 1024A903.944828 903.944828 0 0 1 102.706466 0l48.348011 25.260477a849.077984 849.077984 0 0 0 121.956499 961.527852zM1572.703283 1024l-40.199469-36.668435A849.892838 849.892838 0 0 0 1655.275167 25.260477L1703.351559 0a904.488064 904.488064 0 0 1-130.648276 1024z" fill="current" /></svg>